# xmcd
#
# Track frame offsets:
#	183
#	15438
#	28258
#	40488
#	50365
#	71830
#	87313
#	99745
#	113070
#	123205
#	135965
#	148645
#	161848
#	174755
#	186348
#	200900
#	213090
#	226140
#	239798
#	253758
#	265860
#	280595
#	295203
#	308975
#
# Disc length: 4281 seconds
#
# Revision: 0
# Processed by: cddbd v1.5.1PL0 Copyright (c) Steve Scherf et al.
# Submitted via: dBpowerAMP V4.0
#
DISCID=6210b718
DTITLE=Merle Haggard - All Time Favorites
DYEAR=1900
DGENRE=Country
TTITLE0=Twinkle, Twinkle Lucky Star
TTITLE1=I Take A Lot Of Pride In What I Am
TTITLE2=Okie From Muskogee
TTITLE3=Mama Tried
TTITLE4=Pancho And Lefty
TTITLE5=Hungry Eyes
TTITLE6=The Roots Of My Raising
TTITLE7=Cherokee Maiden
TTITLE8=Movin' On
TTITLE9=I'm Always On A Mountain When I Fall
TTITLE10=Sing Me Back Home
TTITLE11=The Farmers Daughter
TTITLE12=Everybody's Had The Blues
TTITLE13=Workin' Man Blues
TTITLE14=5:01 Blues
TTITLE15=If We Make It Through December
TTITLE16=The Emptiest Arms In The World
TTITLE17=Making Beleive
TTITLE18=Always Wanting You
TTITLE19=You Take Me For Granted
TTITLE20=It's All In The Movies
TTITLE21=Yesterday's Wine
TTITLE22=That's The Way Love Goes
TTITLE23=Silver Wings
EXTD=Ordered from The Beautiful Music Company\n\nmy name is Carl Plowman
EXTT0=
EXTT1=
EXTT2=
EXTT3=
EXTT4=
EXTT5=
EXTT6=
EXTT7=
EXTT8=
EXTT9=
EXTT10=
EXTT11=
EXTT12=
EXTT13=
EXTT14=
EXTT15=
EXTT16=
EXTT17=
EXTT18=
EXTT19=
EXTT20=
EXTT21=
EXTT22=
EXTT23=
PLAYORDER=
